<svg width="35" height="35" viewBox="0 0 35 35" fill="none" xmlns="http://www.w3.org/2000/svg">
<path d="M22.75 17.5C22.75 18.8924 22.1969 20.2278 21.2123 21.2123C20.2278 22.1969 18.8924 22.75 17.5 22.75C16.1076 22.75 14.7723 22.1969 13.7877 21.2123C12.8031 20.2278 12.25 18.8924 12.25 17.5C12.25 17.2008 12.2815 16.9085 12.3358 16.625H10.5V23.6198C10.5 24.1063 10.8938 24.5 11.3803 24.5H23.6215C23.8547 24.4995 24.0781 24.4066 24.2428 24.2416C24.4075 24.0765 24.5 23.8529 24.5 23.6198V16.625H22.6643C22.7185 16.9085 22.75 17.2008 22.75 17.5ZM17.5 21C17.9598 20.9999 18.415 20.9092 18.8397 20.7332C19.2644 20.5571 19.6502 20.2992 19.9753 19.974C20.3003 19.6488 20.558 19.2628 20.7339 18.8381C20.9097 18.4133 21.0001 17.958 21 17.4983C20.9999 17.0385 20.9092 16.5833 20.7332 16.1586C20.5571 15.7339 20.2992 15.348 19.974 15.023C19.6488 14.698 19.2628 14.4402 18.8381 14.2644C18.4133 14.0886 17.958 13.9981 17.4983 13.9983C16.5698 13.9985 15.6794 14.3676 15.023 15.0243C14.3666 15.681 13.998 16.5715 13.9983 17.5C13.9985 18.4285 14.3676 19.3189 15.0243 19.9753C15.681 20.6316 16.5715 21.0002 17.5 21ZM21.7 13.825H23.7983C23.9377 13.825 24.0714 13.7698 24.1701 13.6713C24.2688 13.5729 24.3245 13.4394 24.325 13.3V11.2018C24.325 11.0621 24.2695 10.9281 24.1707 10.8293C24.0719 10.7305 23.938 10.675 23.7983 10.675H21.7C21.5603 10.675 21.4263 10.7305 21.3275 10.8293C21.2288 10.9281 21.1733 11.0621 21.1733 11.2018V13.3C21.175 13.5888 21.4113 13.825 21.7 13.825ZM17.5 0.700012C13.0444 0.700012 8.77123 2.47001 5.62062 5.62062C2.47001 8.77123 0.700012 13.0444 0.700012 17.5C0.700012 21.9557 2.47001 26.2288 5.62062 29.3794C8.77123 32.53 13.0444 34.3 17.5 34.3C19.7062 34.3 21.8908 33.8655 23.9291 33.0212C25.9674 32.1769 27.8194 30.9394 29.3794 29.3794C30.9394 27.8194 32.1769 25.9674 33.0212 23.9291C33.8655 21.8908 34.3 19.7062 34.3 17.5C34.3 15.2938 33.8655 13.1092 33.0212 11.0709C32.1769 9.03266 30.9394 7.18064 29.3794 5.62062C27.8194 4.06059 25.9674 2.82312 23.9291 1.97884C21.8908 1.13456 19.7062 0.700012 17.5 0.700012ZM26.25 24.3058C26.25 25.375 25.375 26.25 24.3058 26.25H10.6943C9.62501 26.25 8.75001 25.375 8.75001 24.3058V10.6943C8.75001 9.62501 9.62501 8.75001 10.6943 8.75001H24.3058C25.375 8.75001 26.25 9.62501 26.25 10.6943V24.3058Z" fill="#F8F8F8"/>
</svg>
