<svg width="60" height="60" viewBox="0 0 60 60" fill="none" xmlns="http://www.w3.org/2000/svg">
<path d="M54.875 21.5391L54.8125 21.1256L54.7475 21.1404C54.3033 19.0951 53.2799 17.2154 51.7959 15.7188C50.3118 14.2223 48.4277 13.17 46.3615 12.6838C44.2953 12.1975 42.1315 12.2972 40.1205 12.9713C38.1095 13.6454 36.3334 14.8663 34.9978 16.4928C33.6622 18.1193 32.8216 20.0848 32.5733 22.1621C32.325 24.2393 32.6792 26.3433 33.5948 28.2306C34.5105 30.1179 35.9502 31.7114 37.7473 32.8267C39.5445 33.942 41.6256 34.5335 43.75 34.5328C44.3075 34.5328 44.8425 34.4491 45.375 34.3728C45.2025 34.9439 45.025 35.5248 44.74 36.0466C44.455 36.8047 44.01 37.4619 43.5675 38.124C43.1975 38.8403 42.545 39.3251 42.065 39.938C41.5625 40.5337 40.8775 40.93 40.335 41.4247C39.8025 41.9416 39.105 42.2001 38.55 42.5643C37.97 42.8917 37.465 43.2535 36.925 43.4258L35.5775 43.9722L34.3925 44.4571L35.6025 49.2298L37.095 48.8753C37.5725 48.7572 38.155 48.6194 38.8175 48.4544C39.495 48.3314 40.2175 47.9942 41.0225 47.6865C41.815 47.3345 42.7375 47.1007 43.5925 46.537C44.4525 46.0004 45.445 45.5525 46.32 44.8337C47.1675 44.0929 48.19 43.4504 48.945 42.5102C49.77 41.629 50.585 40.7035 51.2175 39.6501C51.95 38.6458 52.4475 37.5431 52.9725 36.4527C53.4475 35.3623 53.83 34.2473 54.1425 33.1643C54.735 30.9933 55 28.9307 55.1025 27.1659C55.1875 25.3986 55.1375 23.9292 55.0325 22.8658C54.9974 22.4218 54.9448 21.9792 54.875 21.5391ZM27.375 21.5391L27.3125 21.1256L27.2475 21.1404C26.8033 19.0951 25.7799 17.2154 24.2959 15.7188C22.8118 14.2223 20.9277 13.17 18.8615 12.6838C16.7953 12.1975 14.6315 12.2972 12.6205 12.9713C10.6095 13.6454 8.83342 14.8663 7.49779 16.4928C6.16217 18.1193 5.32159 20.0848 5.07331 22.1621C4.82503 24.2393 5.1792 26.3433 6.09484 28.2306C7.01048 30.1179 8.45016 31.7114 10.2473 32.8267C12.0445 33.942 14.1256 34.5335 16.25 34.5328C16.8075 34.5328 17.3425 34.4491 17.875 34.3728C17.7025 34.9439 17.525 35.5248 17.24 36.0466C16.955 36.8047 16.51 37.4619 16.0675 38.124C15.6975 38.8403 15.045 39.3251 14.565 39.938C14.0625 40.5337 13.3775 40.93 12.835 41.4247C12.3025 41.9416 11.605 42.2001 11.05 42.5643C10.47 42.8917 9.965 43.2535 9.425 43.4258L8.0775 43.9722C7.325 44.275 6.895 44.4522 6.895 44.4522L8.105 49.2249L9.5975 48.8704C10.075 48.7523 10.6575 48.6144 11.32 48.4495C11.9975 48.3264 12.72 47.9892 13.525 47.6816C14.3175 47.3296 15.24 47.0958 16.095 46.5321C16.955 45.9955 17.9475 45.5475 18.8225 44.8288C19.67 44.0879 20.6925 43.4455 21.4475 42.5053C22.2725 41.6241 23.0875 40.6986 23.72 39.6451C24.4525 38.6409 24.95 37.5382 25.475 36.4478C25.95 35.3574 26.3325 34.2424 26.645 33.1594C27.2375 30.9884 27.5025 28.9258 27.605 27.161C27.69 25.3937 27.64 23.9242 27.535 22.8609C27.4977 22.4186 27.4443 21.9777 27.375 21.5391Z" fill="#F266CD"/>
</svg>
