<svg width="40" height="40" viewBox="0 0 40 40" fill="none" xmlns="http://www.w3.org/2000/svg">
<path d="M26.1833 21.1834C26.3351 21.0249 26.454 20.838 26.5333 20.6334C26.7 20.2276 26.7 19.7725 26.5333 19.3667C26.454 19.1621 26.3351 18.9752 26.1833 18.8167L21.1833 13.8167C20.8695 13.5029 20.4438 13.3266 20 13.3266C19.5562 13.3266 19.1305 13.5029 18.8167 13.8167C18.5028 14.1306 18.3265 14.5562 18.3265 15C18.3265 15.4439 18.5028 15.8695 18.8167 16.1834L20.9833 18.3334H15C14.558 18.3334 14.1341 18.509 13.8215 18.8215C13.5089 19.1341 13.3333 19.558 13.3333 20C13.3333 20.4421 13.5089 20.866 13.8215 21.1786C14.1341 21.4911 14.558 21.6667 15 21.6667H20.9833L18.8167 23.8167C18.6605 23.9717 18.5365 24.156 18.4519 24.3591C18.3672 24.5622 18.3237 24.78 18.3237 25C18.3237 25.2201 18.3672 25.4379 18.4519 25.641C18.5365 25.8441 18.6605 26.0284 18.8167 26.1834C18.9716 26.3396 19.1559 26.4636 19.359 26.5482C19.5621 26.6328 19.78 26.6764 20 26.6764C20.22 26.6764 20.4379 26.6328 20.641 26.5482C20.8441 26.4636 21.0284 26.3396 21.1833 26.1834L26.1833 21.1834ZM36.6667 20C36.6667 16.7037 35.6892 13.4814 33.8578 10.7405C32.0265 7.99972 29.4235 5.86352 26.3781 4.60206C23.3326 3.3406 19.9815 3.01054 16.7485 3.65363C13.5155 4.29671 10.5458 5.88406 8.21489 8.21494C5.88401 10.5458 4.29667 13.5155 3.65358 16.7485C3.01049 19.9816 3.34055 23.3327 4.60201 26.3781C5.86347 29.4235 7.99968 32.0265 10.7405 33.8579C13.4813 35.6892 16.7036 36.6667 20 36.6667C24.4203 36.6667 28.6595 34.9108 31.7851 31.7852C34.9107 28.6596 36.6667 24.4203 36.6667 20ZM6.66667 20C6.66667 17.363 7.44866 14.7851 8.91374 12.5924C10.3788 10.3998 12.4612 8.69082 14.8976 7.68165C17.3339 6.67249 20.0148 6.40844 22.6012 6.92291C25.1876 7.43738 27.5634 8.70726 29.4281 10.572C31.2928 12.4367 32.5627 14.8124 33.0771 17.3988C33.5916 19.9853 33.3276 22.6661 32.3184 25.1025C31.3092 27.5388 29.6003 29.6212 27.4076 31.0863C25.2149 32.5514 22.6371 33.3334 20 33.3334C16.4638 33.3334 13.0724 31.9286 10.5719 29.4281C8.07143 26.9277 6.66667 23.5363 6.66667 20Z" fill="#F8F8F8"/>
<path d="M26.1833 21.1834C26.3351 21.0249 26.454 20.838 26.5333 20.6334C26.7 20.2276 26.7 19.7725 26.5333 19.3667C26.454 19.1621 26.3351 18.9752 26.1833 18.8167L21.1833 13.8167C20.8695 13.5029 20.4438 13.3266 20 13.3266C19.5562 13.3266 19.1305 13.5029 18.8167 13.8167C18.5028 14.1306 18.3265 14.5562 18.3265 15C18.3265 15.4439 18.5028 15.8695 18.8167 16.1834L20.9833 18.3334H15C14.558 18.3334 14.1341 18.509 13.8215 18.8215C13.5089 19.1341 13.3333 19.558 13.3333 20C13.3333 20.4421 13.5089 20.866 13.8215 21.1786C14.1341 21.4911 14.558 21.6667 15 21.6667H20.9833L18.8167 23.8167C18.6605 23.9717 18.5365 24.156 18.4519 24.3591C18.3672 24.5622 18.3237 24.78 18.3237 25C18.3237 25.2201 18.3672 25.4379 18.4519 25.641C18.5365 25.8441 18.6605 26.0284 18.8167 26.1834C18.9716 26.3396 19.1559 26.4636 19.359 26.5482C19.5621 26.6328 19.78 26.6764 20 26.6764C20.22 26.6764 20.4379 26.6328 20.641 26.5482C20.8441 26.4636 21.0284 26.3396 21.1833 26.1834L26.1833 21.1834ZM36.6667 20C36.6667 16.7037 35.6892 13.4814 33.8578 10.7405C32.0265 7.99972 29.4235 5.86352 26.3781 4.60206C23.3326 3.3406 19.9815 3.01054 16.7485 3.65363C13.5155 4.29671 10.5458 5.88406 8.21489 8.21494C5.88401 10.5458 4.29667 13.5155 3.65358 16.7485C3.01049 19.9816 3.34055 23.3327 4.60201 26.3781C5.86347 29.4235 7.99968 32.0265 10.7405 33.8579C13.4813 35.6892 16.7036 36.6667 20 36.6667C24.4203 36.6667 28.6595 34.9108 31.7851 31.7852C34.9107 28.6596 36.6667 24.4203 36.6667 20ZM6.66667 20C6.66667 17.363 7.44866 14.7851 8.91374 12.5924C10.3788 10.3998 12.4612 8.69082 14.8976 7.68165C17.3339 6.67249 20.0148 6.40844 22.6012 6.92291C25.1876 7.43738 27.5634 8.70726 29.4281 10.572C31.2928 12.4367 32.5627 14.8124 33.0771 17.3988C33.5916 19.9853 33.3276 22.6661 32.3184 25.1025C31.3092 27.5388 29.6003 29.6212 27.4076 31.0863C25.2149 32.5514 22.6371 33.3334 20 33.3334C16.4638 33.3334 13.0724 31.9286 10.5719 29.4281C8.07143 26.9277 6.66667 23.5363 6.66667 20Z" fill="#F8F8F8"/>
</svg>
