<svg width="34" height="34" viewBox="0 0 34 34" fill="none" xmlns="http://www.w3.org/2000/svg">
<path d="M15.8167 23.1833C15.9752 23.335 16.1621 23.4539 16.3667 23.5333C16.7724 23.7 17.2276 23.7 17.6333 23.5333C17.8379 23.4539 18.0248 23.335 18.1833 23.1833L23.1833 18.1833C23.4972 17.8694 23.6735 17.4438 23.6735 16.9999C23.6735 16.5561 23.4972 16.1304 23.1833 15.8166C22.8695 15.5028 22.4438 15.3264 22 15.3264C21.5562 15.3264 21.1305 15.5028 20.8167 15.8166L18.6667 17.9833V11.9999C18.6667 11.5579 18.4911 11.134 18.1785 10.8214C17.866 10.5089 17.442 10.3333 17 10.3333C16.558 10.3333 16.1341 10.5089 15.8215 10.8214C15.5089 11.134 15.3333 11.5579 15.3333 11.9999V17.9833L13.1833 15.8166C13.0284 15.6604 12.8441 15.5364 12.641 15.4518C12.4379 15.3672 12.22 15.3236 12 15.3236C11.78 15.3236 11.5621 15.3672 11.359 15.4518C11.156 15.5364 10.9716 15.6604 10.8167 15.8166C10.6605 15.9715 10.5365 16.1559 10.4519 16.359C10.3672 16.5621 10.3237 16.7799 10.3237 16.9999C10.3237 17.2199 10.3672 17.4378 10.4519 17.6409C10.5365 17.844 10.6605 18.0283 10.8167 18.1833L15.8167 23.1833ZM17 33.6666C20.2964 33.6666 23.5187 32.6891 26.2595 30.8577C29.0003 29.0264 31.1365 26.4234 32.398 23.378C33.6595 20.3325 33.9895 16.9814 33.3464 13.7484C32.7034 10.5154 31.116 7.54569 28.7851 5.21481C26.4543 2.88394 23.4845 1.29659 20.2515 0.653505C17.0185 0.0104178 13.6674 0.340473 10.622 1.60193C7.57652 2.86339 4.97354 4.9996 3.14218 7.74042C1.31083 10.4812 0.333344 13.7036 0.333344 16.9999C0.333344 21.4202 2.08929 25.6594 5.2149 28.785C6.76254 30.3327 8.59986 31.5603 10.622 32.3979C12.644 33.2355 14.8113 33.6666 17 33.6666ZM17 3.66659C19.6371 3.66659 22.215 4.44858 24.4076 5.91366C26.6003 7.37875 28.3092 9.46113 29.3184 11.8975C30.3276 14.3338 30.5916 17.0147 30.0772 19.6011C29.5627 22.1875 28.2928 24.5633 26.4281 26.428C24.5634 28.2927 22.1876 29.5626 19.6012 30.0771C17.0148 30.5915 14.3339 30.3275 11.8976 29.3183C9.46122 28.3092 7.37884 26.6002 5.91375 24.4075C4.44866 22.2149 3.66668 19.637 3.66668 16.9999C3.66668 13.4637 5.07144 10.0723 7.57192 7.57184C10.0724 5.07135 13.4638 3.66659 17 3.66659Z" fill="#F8F8F8"/>
</svg>
