<svg width="37" height="37" viewBox="0 0 37 37" fill="none" xmlns="http://www.w3.org/2000/svg">
<path d="M31.08 10.545C26.64 3.7 17.575 1.665 10.545 5.92C3.69999 10.175 1.47999 19.425 5.91999 26.27L6.28999 26.825L4.80999 32.375L10.36 30.895L10.915 31.265C13.32 32.56 15.91 33.3 18.5 33.3C21.275 33.3 24.05 32.56 26.455 31.08C33.3 26.64 35.335 17.575 31.08 10.545ZM27.195 24.79C26.455 25.9 25.53 26.64 24.235 26.825C23.495 26.825 22.57 27.195 18.87 25.715C15.725 24.235 13.135 21.83 11.285 19.055C10.175 17.76 9.61999 16.095 9.43499 14.43C9.43499 12.95 9.98999 11.655 10.915 10.73C11.285 10.36 11.655 10.175 12.025 10.175H12.95C13.32 10.175 13.69 10.175 13.875 10.915C14.245 11.84 15.17 14.06 15.17 14.245C15.355 14.43 15.355 14.8 15.17 14.985C15.355 15.355 15.17 15.725 14.985 15.91C14.8 16.095 14.615 16.465 14.43 16.65C14.06 16.835 13.875 17.205 14.06 17.575C14.8 18.685 15.725 19.795 16.65 20.72C17.76 21.645 18.87 22.385 20.165 22.94C20.535 23.125 20.905 23.125 21.09 22.755C21.275 22.385 22.2 21.46 22.57 21.09C22.94 20.72 23.125 20.72 23.495 20.905L26.455 22.385C26.825 22.57 27.195 22.755 27.38 22.94C27.565 23.495 27.565 24.235 27.195 24.79Z" fill="#F8F8F8"/>
</svg>
